<?xml version="1.0" encoding="utf-8"?>
<!-- Generator: Adobe Illustrator 18.0.0, SVG Export Plug-In . SVG Version: 6.00 Build 0)  -->
<!DOCTYPE svg PUBLIC "-//W3C//DTD SVG 1.1//EN" "http://www.w3.org/Graphics/SVG/1.1/DTD/svg11.dtd">
<svg version="1.1" id="Layer_1" xmlns="http://www.w3.org/2000/svg" xmlns:xlink="http://www.w3.org/1999/xlink" x="0px" y="0px"
	 viewBox="0 0 30 20" enable-background="new 0 0 30 20" xml:space="preserve">
<path fill="currentColor" d="M2.632,8.498L20.47,8.505c0.991,0,1.489-1.175,0.789-1.864l-2.796-2.748
	c-0.434-0.427-0.433-1.118,0.002-1.544l0.56-0.549c0.435-0.426,1.139-0.426,1.573,0l7.56,7.431c0.434,0.427,0.433,1.118-0.002,1.544
	L20.579,18.2c-0.435,0.426-1.139,0.425-1.574-0.001l-0.559-0.55c-0.434-0.427-0.433-1.118,0.002-1.544l2.802-2.746
	c0.702-0.688,0.207-1.863-0.785-1.864L2.628,11.489c-0.615,0-1.112-0.49-1.111-1.093l0.001-0.807
	C1.519,8.987,2.017,8.498,2.632,8.498z"/>
</svg>
