<?xml version="1.0" encoding="utf-8"?>
<!-- Generator: Adobe Illustrator 18.0.0, SVG Export Plug-In . SVG Version: 6.00 Build 0)  -->
<!DOCTYPE svg PUBLIC "-//W3C//DTD SVG 1.1//EN" "http://www.w3.org/Graphics/SVG/1.1/DTD/svg11.dtd">
<svg version="1.1" id="Layer_1" xmlns="http://www.w3.org/2000/svg" xmlns:xlink="http://www.w3.org/1999/xlink" x="0px" y="0px"
	 viewBox="0 0 30 30" enable-background="new 0 0 30 30" xml:space="preserve">
<path fill="currentColor" d="M21.308,11.762c-1.787-1.646,0.129-3.549,0.129-3.549c-2.286,1.245-3.222-0.358-3.349-0.176
	c-1.32,1.902-0.611,3.507,0.21,4.201C19.33,13.11,21.648,12.075,21.308,11.762"/>
<path fill="currentColor" d="M17.112,12.848c-2.925,1.404-4.448-0.613-4.805-0.274c-2.463,2.337-1.466,4.842-0.23,5.87
	c1.537,1.276,4.652-0.771,4.252-1.331C15.089,15.38,17.112,12.848,17.112,12.848"/>
<path fill="currentColor" d="M7.619,23.238c1.116,0.85,3.764-0.36,3.456-0.731c-1.517-1.83-0.564-3.769-0.564-3.769
	c-2.184,1.01-2.703-0.912-2.85-0.735C5.672,20.389,6.731,22.562,7.619,23.238"/>
<path fill="currentColor" d="M6.37,27.491c-1.735-1.419-0.257-3.918-0.257-3.918c-2.395,1.236-3.699,0.006-3.75,0.217
	c-0.391,1.607,0.356,2.801,1.213,3.465C4.654,28.089,6.539,27.63,6.37,27.491"/>
<path fill="currentColor" d="M18.421,18.24c1.134,0.735,3.505-0.465,3.229-0.84c-1.524-2.064-0.212-4.247-0.212-4.247
	c-2.17,1.485-3.495,0.376-3.602,0.569C16.709,15.74,17.519,17.655,18.421,18.24"/>
<path fill="currentColor" d="M13.469,7.919c-1.819,2.111-1.049,3.501,0.087,4.207c1.148,0.714,3.232,0.031,2.968-0.354
	c-1.185-1.728,0.297-3.681,0.297-3.681C14.5,9.246,13.613,7.752,13.469,7.919"/>
<path fill="currentColor" d="M16.986,22.445c-1.855-1.566-0.584-3.766-0.584-3.766c-3.076,2.345-4.771,0.327-4.869,0.524
	c-1.027,2.065,0.836,3.104,1.808,3.573C15.038,23.595,17.021,22.475,16.986,22.445"/>
<path fill="currentColor" d="M19.351,22.773c1.411,0.373,3.447-0.66,3.214-1.069c-0.97-1.706,0.234-3.825,0.234-3.825
	c-2.627,2.519-5.234,1.097-5.325,1.297C16.517,21.27,18.295,22.494,19.351,22.773"/>
<path fill="currentColor" d="M17.384,26.907c-0.873-1.896,0.034-3.653,0.034-3.653c-2.618,1.641-4.599,0.182-4.731,0.36
	c-1.376,1.863,0.189,3.304,1.327,3.685C15.309,27.733,17.582,27.338,17.384,26.907"/>
<path fill="currentColor" d="M22.417,12.783c-0.812,2.689-0.056,4.078,1.463,4.269c1.378,0.173,2.37-0.778,2.286-0.898
	c-1.184-1.686-0.732-4.164-0.732-4.164C23.694,14.014,22.48,12.575,22.417,12.783"/>
<path fill="currentColor" d="M11.514,23.416c-2.775,2.122-4.597,0.481-4.662,0.597c-1.134,2.013,0.715,3.57,1.819,3.956
	c1.287,0.451,4.066-0.086,3.992-0.14C10.188,26.046,11.514,23.416,11.514,23.416"/>
<path fill="currentColor" d="M14.257,6.998c0.704,1.18,3.036,0.339,2.913,0.097c-1.109-2.175,0.992-3.344,0.992-3.344
	c-2.87,0.055-3.303-0.987-3.437-0.812C13.265,4.844,13.697,6.059,14.257,6.998"/>
<path fill="currentColor" d="M7.071,16.343c1.251,1.715,3.413,1.333,3.293,1.193c-1.589-1.853,1.161-5.603,1.161-5.603
	c-2.391,0.927-4.138-0.221-4.269-0.042C6.135,13.423,6.431,15.466,7.071,16.343"/>
<path fill="currentColor" d="M8.622,6.654c-1.287,1.925-1.219,3.54-0.034,4.309c1.045,0.677,3.184,0.063,3.1-0.132
	c-0.852-1.975,1.243-4.101,1.243-4.101C11.251,7.713,8.771,6.431,8.622,6.654"/>
<path fill="currentColor" d="M22.018,8.441c-1.198,1.726-0.408,2.81,0.338,3.439c0.936,0.791,2.855-0.278,2.692-0.531
	c-1.205-1.881-0.05-3.18-0.05-3.18C22.923,9.299,22.133,8.276,22.018,8.441"/>
<path fill="currentColor" d="M18.345,4.758c-0.88,1.813-0.017,2.154,0.737,2.752c0.925,0.734,2.635,0.018,2.478-0.192
	c-0.938-1.253,0.22-2.842,0.332-2.99c0.002-0.004,0.003-0.007,0.005-0.01C19.901,5.402,18.436,4.571,18.345,4.758"/>
<path fill="currentColor" d="M5.901,22.519c-1.424-1.862,0.852-5.051,0.852-5.051c-3.007,2.03-4.117,0.961-4.235,1.148
	c-1.114,1.77-0.512,3.401,0.309,4.095C3.86,23.583,6.184,22.889,5.901,22.519"/>
<path fill="currentColor" d="M6.261,16.511C4.406,14.945,6.442,11.9,6.442,11.9c-2.421,2.216-3.695,1.166-3.803,1.358
	c-1.256,2.231-0.397,3.696,0.545,4.218C4.368,18.131,6.42,16.645,6.261,16.511"/>
<path fill="currentColor" d="M6.72,10.757C5.799,8.375,7.937,5.765,7.937,5.765c-2.14,1.136-3.382,2.488-3.753,3.104
	c-0.944,1.571-1.158,2.973-0.454,3.18C5.043,12.436,6.844,11.079,6.72,10.757"/>
<path fill="currentColor" d="M8.888,5.098c0.384,1.359,4.071,1.124,3.899,0.698c-0.542-1.348,1.422-3.253,1.422-3.253
	C11.767,2.611,8.759,4.64,8.888,5.098"/>
<path fill="currentColor" d="M22.811,22.82c-3.404,1.734-4.641,0.725-4.668,0.937C17.35,30.059,22.811,22.82,22.811,22.82"/>
<path fill="currentColor" d="M23.891,18.465c0,0-0.598,0.812-0.769,1.636c-0.171,0.824,0.403,1.889,0.403,1.889
	c2.494-0.992,2.728-5.054,2.432-4.569C25.66,17.906,23.891,18.465,23.891,18.465"/>
<path fill="currentColor" d="M19.064,4.087c0.801,0.627,2.676-0.353,2.588-0.409C19.953,2.592,18.429,3.59,19.064,4.087"/>
<path fill="currentColor" d="M15.801,2.57c0.8,0.627,2.896,0.234,2.799,0.195C16.442,1.911,15.166,2.073,15.801,2.57"/>
<path fill="currentColor" d="M27.129,14.965c0.488-0.595-0.518-3.172-0.552-3.061C25.973,13.873,26.547,15.675,27.129,14.965"/>
<path fill="currentColor" d="M26.368,10.615c0.249-0.758-0.713-1.923-0.732-1.843C25.261,10.32,26.17,11.216,26.368,10.615"/>
<path fill="currentColor" d="M24.534,4.465c-0.051,0.038-0.104,0.078-0.158,0.118c0.135,0.009,0.266,0.054,0.375,0.14
	c0.025,0.02,0.049,0.041,0.071,0.063c0.182,0.182,0.257,0.434,0.185,0.687c-0.004,0.034-0.009,0.139,0.024,0.294
	c0.102-0.077,0.203-0.153,0.303-0.227c1.193-0.888,2.081-1.55,2.757-3.664c-0.134,0.089-0.284,0.153-0.447,0.184
	c-0.399,0.076-0.721-0.051-0.959-0.208C26.169,3.248,25.542,3.715,24.534,4.465"/>
<path fill="currentColor" d="M22.452,4.876c-0.117,0.299-0.188,0.579-0.221,0.837c-0.024,0.193-0.029,0.374-0.015,0.54
	c0.009,0.119,0.027,0.23,0.052,0.334c0.038,0.156,0.092,0.295,0.156,0.415c0.022,0.04,0.045,0.078,0.068,0.114
	c0.048,0.072,0.099,0.136,0.154,0.19c0.011,0.012,0.024,0.022,0.036,0.033c0.012,0.01,0.023,0.022,0.035,0.032
	c0.012,0.009,0.025,0.018,0.037,0.027c0.013,0.009,0.026,0.019,0.039,0.028c0.013,0.008,0.026,0.016,0.039,0.023
	c0.014,0.009,0.028,0.017,0.042,0.025c0.013,0.007,0.028,0.013,0.041,0.02c0.015,0.007,0.029,0.014,0.044,0.021
	c0.014,0.006,0.028,0.01,0.042,0.016c0.016,0.006,0.032,0.012,0.048,0.018c0.014,0.004,0.029,0.008,0.043,0.012
	c0.017,0.005,0.033,0.011,0.05,0.015c0.014,0.004,0.029,0.006,0.043,0.01c0.018,0.003,0.035,0.008,0.053,0.011
	c0.014,0.003,0.029,0.005,0.043,0.007c0.018,0.003,0.036,0.006,0.055,0.009c0.014,0.001,0.029,0.003,0.044,0.004
	c0.019,0.002,0.037,0.004,0.056,0.006c0.013,0.001,0.027,0.001,0.041,0.002c0.02,0.001,0.04,0.002,0.06,0.003
	c0.013,0,0.025,0,0.038,0c0.021,0,0.043,0.001,0.064,0c0.014,0,0.028-0.001,0.042-0.001c0.02-0.001,0.041-0.001,0.061-0.002
	c0.014-0.001,0.029-0.002,0.043-0.003c0.02-0.002,0.04-0.003,0.059-0.005c0.012-0.001,0.025-0.003,0.037-0.004
	c0.022-0.002,0.043-0.004,0.065-0.007c0.012-0.001,0.023-0.003,0.035-0.005c0.022-0.003,0.044-0.006,0.065-0.009
	c0.008-0.001,0.017-0.003,0.025-0.004c0.025-0.004,0.049-0.008,0.074-0.013c0.006-0.001,0.012-0.002,0.018-0.003
	c0.026-0.005,0.052-0.01,0.078-0.016c0.013-0.003,0.026-0.006,0.04-0.009c0.018-0.004,0.036-0.008,0.053-0.012
	c0.011-0.003,0.022-0.005,0.032-0.008c0.02-0.005,0.039-0.01,0.058-0.015c0.007-0.001,0.013-0.003,0.02-0.005
	c0.022-0.006,0.045-0.012,0.066-0.019c0.005-0.001,0.01-0.003,0.015-0.004c0.023-0.007,0.045-0.013,0.067-0.02
	c0.004-0.002,0.008-0.003,0.012-0.004c0.022-0.007,0.044-0.014,0.064-0.021c0.004-0.002,0.008-0.003,0.012-0.004
	c0.045-0.016,0.087-0.031,0.125-0.047c0.012-0.004,0.024-0.009,0.036-0.014c0.007-0.003,0.016-0.007,0.023-0.01
	c0.009-0.004,0.017-0.008,0.026-0.011c0.008-0.004,0.018-0.008,0.025-0.012c0.027-0.012,0.048-0.024,0.067-0.034
	c0.005-0.003,0.01-0.005,0.014-0.008c0.007-0.004,0.013-0.008,0.019-0.012c0.003-0.002,0.006-0.004,0.008-0.006
	c0.012-0.008,0.02-0.015,0.025-0.021c0.004-0.007,0.005-0.012,0.001-0.015c-0.12-0.131-0.222-0.258-0.308-0.382
	c-0.086-0.124-0.157-0.244-0.215-0.359c-0.046-0.089-0.081-0.174-0.112-0.257c-0.009-0.023-0.019-0.047-0.027-0.069
	c-0.035-0.103-0.06-0.199-0.077-0.286c-0.014-0.072-0.023-0.136-0.028-0.196c-0.007-0.074-0.009-0.138-0.008-0.192
	c0-0.006,0-0.01,0.001-0.015c0.002-0.081,0.01-0.137,0.014-0.158c0.001-0.007,0.002-0.01,0.002-0.01
	c-0.038,0.022-0.074,0.041-0.11,0.058c-0.012,0.006-0.023,0.011-0.034,0.016c-0.024,0.011-0.048,0.022-0.071,0.031
	c-0.013,0.005-0.026,0.009-0.04,0.014c-0.02,0.008-0.041,0.015-0.061,0.021c-0.013,0.004-0.027,0.007-0.04,0.011
	c-0.019,0.005-0.038,0.01-0.056,0.013c-0.013,0.003-0.026,0.005-0.04,0.008c-0.014,0.002-0.028,0.004-0.042,0.006
	c-0.004,0-0.007,0.001-0.01,0.001c-0.013,0.001-0.026,0.002-0.038,0.003c-0.017,0.001-0.034,0.002-0.051,0.002
	c-0.012,0-0.024,0-0.036,0c-0.016-0.001-0.032-0.002-0.048-0.004c-0.011-0.001-0.023-0.002-0.033-0.003
	c-0.017-0.003-0.033-0.006-0.049-0.009c-0.01-0.002-0.02-0.004-0.029-0.006c-0.018-0.004-0.034-0.009-0.051-0.015
	c-0.008-0.002-0.016-0.004-0.023-0.007c-0.048-0.017-0.093-0.038-0.136-0.062c-0.008-0.004-0.014-0.009-0.021-0.013
	c-0.014-0.009-0.028-0.017-0.042-0.027c-0.008-0.005-0.016-0.011-0.024-0.017c-0.012-0.009-0.024-0.017-0.035-0.027
	c-0.008-0.006-0.016-0.013-0.024-0.019c-0.011-0.009-0.021-0.019-0.032-0.028c-0.008-0.007-0.015-0.014-0.023-0.022
	c-0.005-0.005-0.011-0.01-0.016-0.015c-0.004-0.005-0.008-0.009-0.013-0.014c-0.008-0.008-0.016-0.016-0.023-0.025
	c-0.009-0.009-0.018-0.019-0.027-0.029c-0.007-0.009-0.014-0.017-0.022-0.026c-0.008-0.01-0.016-0.02-0.024-0.03
	c-0.007-0.009-0.014-0.018-0.021-0.027c-0.008-0.01-0.015-0.021-0.023-0.031c-0.006-0.009-0.012-0.018-0.019-0.027
	c-0.007-0.01-0.014-0.02-0.021-0.031c-0.006-0.009-0.012-0.018-0.017-0.026c-0.007-0.011-0.014-0.021-0.02-0.032
	c-0.006-0.008-0.011-0.017-0.016-0.026c-0.006-0.01-0.012-0.02-0.018-0.03c-0.005-0.009-0.01-0.017-0.015-0.026
	c-0.006-0.01-0.011-0.02-0.017-0.03c-0.004-0.008-0.008-0.016-0.013-0.024c-0.005-0.01-0.01-0.02-0.016-0.03
	c-0.003-0.007-0.007-0.014-0.01-0.021c-0.006-0.01-0.011-0.02-0.016-0.03c-0.003-0.006-0.006-0.012-0.009-0.018
	c-0.004-0.009-0.009-0.017-0.013-0.025c-0.009-0.019-0.017-0.036-0.025-0.052c-0.001-0.001-0.002-0.003-0.003-0.005
	c-0.006-0.012-0.011-0.023-0.017-0.034c0,0,0-0.001-0.001-0.002c-0.004-0.009-0.009-0.017-0.013-0.025
	c-0.002-0.002-0.003-0.004-0.004-0.006c-0.003-0.005-0.006-0.01-0.008-0.014c-0.002-0.002-0.003-0.004-0.005-0.006
	c-0.002-0.002-0.004-0.005-0.006-0.007c-0.002-0.002-0.004-0.002-0.006-0.003c-0.001,0-0.002-0.001-0.002-0.001
	c-0.003,0-0.005,0.001-0.007,0.005c-0.026,0.053-0.048,0.104-0.071,0.155C22.505,4.745,22.477,4.811,22.452,4.876"/>
</svg>
