<?xml version="1.0" encoding="utf-8"?>
<!-- Generator: Adobe Illustrator 18.0.0, SVG Export Plug-In . SVG Version: 6.00 Build 0)  -->
<!DOCTYPE svg PUBLIC "-//W3C//DTD SVG 1.1//EN" "http://www.w3.org/Graphics/SVG/1.1/DTD/svg11.dtd">
<svg version="1.1" id="Layer_1" xmlns="http://www.w3.org/2000/svg" xmlns:xlink="http://www.w3.org/1999/xlink" x="0px" y="0px"
	 viewBox="0 0 22 18" enable-background="new 0 0 22 18" xml:space="preserve">
<path fill="currentColor" d="M20.539,3.105c-0.702,0.31-1.456,0.52-2.248,0.614c0.808-0.483,1.429-1.247,1.721-2.158
	c-0.756,0.447-1.594,0.772-2.486,0.946c-0.714-0.758-1.731-1.232-2.857-1.232c-2.162,0-3.914,1.746-3.914,3.9
	c0,0.306,0.035,0.603,0.101,0.889C7.604,5.902,4.72,4.349,2.789,1.99c-0.337,0.576-0.53,1.246-0.53,1.961
	c0,1.353,0.691,2.547,1.741,3.246c-0.642-0.02-1.245-0.196-1.773-0.488c0,0.016,0,0.033,0,0.049c0,1.89,1.349,3.466,3.14,3.824
	c-0.328,0.089-0.674,0.137-1.031,0.137c-0.252,0-0.497-0.024-0.736-0.07c0.498,1.549,1.944,2.677,3.656,2.708
	c-1.339,1.046-3.027,1.669-4.861,1.669c-0.316,0-0.628-0.018-0.934-0.054c1.732,1.107,3.79,1.752,6,1.752
	c7.199,0,11.136-5.943,11.136-11.096c0-0.169-0.004-0.337-0.011-0.504C19.351,4.574,20.014,3.887,20.539,3.105z"/>
</svg>
