<?xml version="1.0" encoding="utf-8"?>
<!-- Generator: Adobe Illustrator 18.0.0, SVG Export Plug-In . SVG Version: 6.00 Build 0)  -->
<!DOCTYPE svg PUBLIC "-//W3C//DTD SVG 1.1//EN" "http://www.w3.org/Graphics/SVG/1.1/DTD/svg11.dtd">
<svg version="1.1" id="Layer_1" xmlns="http://www.w3.org/2000/svg" xmlns:xlink="http://www.w3.org/1999/xlink" x="0px" y="0px"
	 viewBox="0 0 18 18" enable-background="new 0 0 18 18" xml:space="preserve">
<path fill="currentColor" d="M9,2.668c2.038,0,2.279,0.008,3.084,0.045c0.744,0.034,1.148,0.16,1.417,0.266
	c0.356,0.14,0.61,0.307,0.877,0.578c0.267,0.27,0.432,0.528,0.571,0.888c0.105,0.272,0.229,0.681,0.263,1.434
	C15.248,6.693,15.256,6.938,15.256,9c0,2.062-0.008,2.307-0.045,3.121c-0.034,0.753-0.158,1.162-0.263,1.434
	c-0.138,0.36-0.304,0.618-0.571,0.888c-0.267,0.27-0.521,0.438-0.877,0.578c-0.269,0.106-0.673,0.232-1.417,0.266
	c-0.805,0.037-1.046,0.045-3.084,0.045c-2.038,0-2.279-0.008-3.084-0.045c-0.744-0.034-1.148-0.16-1.417-0.266
	c-0.356-0.14-0.611-0.307-0.878-0.578c-0.267-0.27-0.432-0.528-0.571-0.888c-0.105-0.272-0.229-0.681-0.263-1.434
	C2.752,11.307,2.744,11.062,2.744,9c0-2.062,0.008-2.307,0.044-3.121c0.034-0.753,0.158-1.162,0.263-1.434
	c0.138-0.36,0.304-0.618,0.571-0.888c0.267-0.27,0.521-0.438,0.878-0.578c0.269-0.106,0.673-0.232,1.417-0.266
	C6.721,2.676,6.962,2.668,9,2.668 M9,1.276c-2.073,0-2.332,0.009-3.146,0.046C5.041,1.36,4.487,1.491,4.001,1.681
	C3.499,1.879,3.074,2.143,2.65,2.572c-0.424,0.429-0.685,0.86-0.88,1.368C1.581,4.432,1.452,4.993,1.415,5.815
	C1.378,6.639,1.369,6.902,1.369,9c0,2.098,0.009,2.361,0.046,3.185c0.037,0.822,0.166,1.384,0.355,1.875
	c0.195,0.508,0.456,0.939,0.88,1.368c0.424,0.429,0.85,0.693,1.352,0.891c0.485,0.191,1.04,0.322,1.852,0.359
	C6.668,16.715,6.927,16.724,9,16.724c2.072,0,2.332-0.009,3.146-0.046c0.812-0.038,1.367-0.168,1.852-0.359
	c0.502-0.197,0.927-0.461,1.352-0.891c0.424-0.43,0.685-0.86,0.88-1.368c0.189-0.491,0.318-1.053,0.355-1.875
	c0.037-0.824,0.046-1.087,0.046-3.185c0-2.098-0.009-2.361-0.046-3.185c-0.037-0.822-0.166-1.384-0.355-1.875
	c-0.195-0.508-0.456-0.939-0.88-1.368c-0.424-0.429-0.85-0.694-1.352-0.891c-0.485-0.191-1.04-0.321-1.852-0.359
	C11.332,1.285,11.072,1.276,9,1.276L9,1.276z"/>
<path fill="currentColor" d="M9,5.034C6.836,5.034,5.081,6.809,5.081,9S6.836,12.967,9,12.967S12.919,11.191,12.919,9
	S11.164,5.034,9,5.034z M9,11.575c-1.405,0-2.544-1.153-2.544-2.575c0-1.422,1.139-2.575,2.544-2.575S11.544,7.578,11.544,9
	C11.544,10.422,10.405,11.575,9,11.575z"/>
<path fill="currentColor" d="M13.989,4.877c0,0.512-0.41,0.927-0.916,0.927c-0.506,0-0.916-0.415-0.916-0.927s0.41-0.927,0.916-0.927
	C13.579,3.95,13.989,4.365,13.989,4.877z"/>
</svg>
