<?xml version="1.0" encoding="utf-8"?>
<!-- Generator: Adobe Illustrator 18.0.0, SVG Export Plug-In . SVG Version: 6.00 Build 0)  -->
<!DOCTYPE svg PUBLIC "-//W3C//DTD SVG 1.1//EN" "http://www.w3.org/Graphics/SVG/1.1/DTD/svg11.dtd">
<svg version="1.1" id="Layer_1" xmlns="http://www.w3.org/2000/svg" xmlns:xlink="http://www.w3.org/1999/xlink" x="0px" y="0px"
	 viewBox="0 0 24 18" enable-background="new 0 0 24 18" xml:space="preserve">
<path fill="currentColor" d="M22.417,4.609c0,0-0.208-1.513-0.845-2.18c-0.808-0.875-1.714-0.879-2.13-0.93c-2.975-0.222-7.437-0.222-7.437-0.222h-0.009
	c0,0-4.462,0-7.437,0.222c-0.416,0.051-1.321,0.055-2.13,0.93c-0.637,0.667-0.845,2.18-0.845,2.18S1.371,6.386,1.371,8.163V9.83
	c0,1.777,0.213,3.555,0.213,3.555s0.207,1.513,0.845,2.18c0.809,0.875,1.871,0.847,2.344,0.939C6.473,16.672,12,16.724,12,16.724
	s4.467-0.007,7.442-0.229c0.416-0.051,1.322-0.056,2.13-0.93c0.637-0.667,0.845-2.18,0.845-2.18s0.212-1.777,0.212-3.555V8.163
	C22.629,6.386,22.417,4.609,22.417,4.609z M9.78,12.045V5.859l5.648,3.031L9.78,12.045z"/>
</svg>
